<svg width="512" height="512" viewBox="0 0 512 512" fill="none" xmlns="http://www.w3.org/2000/svg">
<rect width="512" height="512" fill="#272727"/>
<path d="M283.393 128.455L278.545 306.686H233.055L228.084 128.455H283.393ZM255.8 386.232C247.597 386.232 240.554 383.331 234.671 377.531C228.788 371.648 225.888 364.605 225.971 356.402C225.888 348.282 228.788 341.321 234.671 335.521C240.554 329.721 247.597 326.821 255.8 326.821C263.672 326.821 270.591 329.721 276.557 335.521C282.523 341.321 285.547 348.282 285.63 356.402C285.547 361.871 284.097 366.884 281.28 371.441C278.545 375.915 274.941 379.52 270.467 382.254C265.992 384.906 261.103 386.232 255.8 386.232Z" fill="#848484"/>
</svg>
